<svg width="159" height="37" viewBox="0 0 159 37" fill="none" xmlns="http://www.w3.org/2000/svg">
<path d="M0.752637 36.0655C0.512656 36.2021 0.428861 36.5074 0.565476 36.7474C0.702091 36.9873 1.00738 37.0711 1.24736 36.9345L0.752637 36.0655ZM14.3656 28.8913V28.3913H14.2333L14.1183 28.4568L14.3656 28.8913ZM29.9588 28.8913V29.3913H30.104L30.2267 29.3135L29.9588 28.8913ZM45.5521 19L45.7266 18.5315L45.4939 18.4448L45.2842 18.5778L45.5521 19ZM57.8039 23.5652L57.6293 24.0337L57.8628 24.1208L58.0729 23.9867L57.8039 23.5652ZM80.4512 9.1087L80.689 8.66889L80.4302 8.52891L80.1821 8.68724L80.4512 9.1087ZM107.182 23.5652L106.945 24.005L107.157 24.1197L107.378 24.0252L107.182 23.5652ZM159 1.5L153.269 0.802939L155.531 6.11489L159 1.5ZM1.24736 36.9345L14.613 29.3258L14.1183 28.4568L0.752637 36.0655L1.24736 36.9345ZM14.3656 29.3913H29.9588V28.3913H14.3656V29.3913ZM30.2267 29.3135L45.8199 19.4222L45.2842 18.5778L29.691 28.4691L30.2267 29.3135ZM45.3775 19.4685L57.6293 24.0337L57.9785 23.0967L45.7266 18.5315L45.3775 19.4685ZM58.0729 23.9867L80.7202 9.53015L80.1821 8.68724L57.5348 23.1438L58.0729 23.9867ZM80.2133 9.5485L106.945 24.005L107.42 23.1254L80.689 8.66889L80.2133 9.5485ZM107.378 24.0252L155.056 3.72305L154.664 2.803L106.987 23.1052L107.378 24.0252Z" fill="#E4E4E4"/>
</svg>
