<svg width="159" height="37" viewBox="0 0 159 37" fill="none" xmlns="http://www.w3.org/2000/svg">
<path d="M0.752637 1.43452C0.512656 1.29791 0.428861 0.992619 0.565476 0.752636C0.702091 0.512657 1.00738 0.42886 1.24736 0.565475L0.752637 1.43452ZM14.3656 8.6087V9.1087H14.2333L14.1183 9.04322L14.3656 8.6087ZM29.9588 8.6087V8.1087H30.104L30.2267 8.18648L29.9588 8.6087ZM45.5521 18.5L45.7266 18.9685L45.4939 19.0552L45.2842 18.9222L45.5521 18.5ZM57.8039 13.9348L57.6293 13.4663L57.8628 13.3792L58.0729 13.5133L57.8039 13.9348ZM80.4512 28.3913L80.689 28.8311L80.4302 28.9711L80.1821 28.8128L80.4512 28.3913ZM107.182 13.9348L106.945 13.495L107.157 13.3803L107.378 13.4748L107.182 13.9348ZM159 36L153.269 36.6971L155.531 31.3851L159 36ZM1.24736 0.565475L14.613 8.17417L14.1183 9.04322L0.752637 1.43452L1.24736 0.565475ZM14.3656 8.1087H29.9588V9.1087H14.3656V8.1087ZM30.2267 8.18648L45.8199 18.0778L45.2842 18.9222L29.691 9.03091L30.2267 8.18648ZM45.3775 18.0315L57.6293 13.4663L57.9785 14.4033L45.7266 18.9685L45.3775 18.0315ZM58.0729 13.5133L80.7202 27.9699L80.1821 28.8128L57.5348 14.3562L58.0729 13.5133ZM80.2133 27.9515L106.945 13.495L107.42 14.3746L80.689 28.8311L80.2133 27.9515ZM107.378 13.4748L155.056 33.7769L154.664 34.697L106.987 14.3948L107.378 13.4748Z" fill="#E4E4E4"/>
</svg>
