<svg width="62" height="80" viewBox="0 0 62 80" fill="none" xmlns="http://www.w3.org/2000/svg">
<path d="M22.132 44.335H32.2895C38.0111 44.335 41.7345 44.64 43.4445 45.2258C45.1553 45.8233 46.4678 46.7733 47.3695 48.0808C48.2836 49.3825 48.7403 50.9708 48.7403 52.8467C48.7403 55.0508 48.1428 56.8208 46.9711 58.1342C45.7936 59.4533 44.2761 60.2858 42.402 60.6258C41.1836 60.8783 38.3103 61.0058 33.7753 61.0058H22.132V44.335ZM22.132 19.55H29.3586C35.2778 19.55 38.8628 19.6208 40.1053 19.7608C42.2028 20.0133 43.7845 20.7458 44.8503 21.9533C45.9053 23.1492 46.4378 24.7208 46.4378 26.6433C46.4378 28.66 45.8228 30.29 44.592 31.515C43.3628 32.7508 41.6636 33.4958 39.5128 33.7483C38.3211 33.8883 35.2778 33.965 30.3778 33.965H22.132V19.55ZM11.072 71.5058V80H21.4403V71.5058H27.9903V80H38.3595V71.4058C42.0036 71.33 44.6161 71.2242 45.9286 71.0833C49.2678 70.7142 52.0853 69.735 54.3645 68.1292C56.6486 66.5292 58.4411 64.3833 59.7653 61.71C61.0778 59.0258 61.7403 56.2708 61.7403 53.4383C61.7403 49.8392 60.7145 46.7033 58.6761 44.0417C56.637 41.3808 53.7195 39.4875 49.9236 38.385C52.6186 37.1658 54.7511 35.3308 56.3211 32.8983C57.8911 30.4658 58.6761 27.7808 58.6761 24.8608C58.6761 22.1708 58.0428 19.7375 56.7661 17.5683C55.4895 15.3992 53.8961 13.6642 51.9853 12.3633C50.0761 11.0558 47.9086 10.2 45.4836 9.79C43.7553 9.49667 41.3595 9.315 38.3595 9.2325V0H27.9903V9.17417H21.4403V0H11.072V9.17417H0.0078125V19.55H9.55448V61.13H0.0078125V71.5058H11.072Z" fill="#101222"/>
</svg>
