<svg width="61" height="76" viewBox="0 0 61 76" fill="none" xmlns="http://www.w3.org/2000/svg">
<path d="M21.1398 40.335H31.2973C37.019 40.335 40.7423 40.64 42.4523 41.2258C44.1631 41.8233 45.4756 42.7733 46.3773 44.0808C47.2915 45.3825 47.7481 46.9708 47.7481 48.8467C47.7481 51.0508 47.1506 52.8208 45.979 54.1342C44.8015 55.4533 43.284 56.2858 41.4098 56.6258C40.1915 56.8783 37.3181 57.0058 32.7831 57.0058H21.1398V40.335ZM21.1398 15.55H28.3665C34.2856 15.55 37.8706 15.6208 39.1131 15.7608C41.2106 16.0133 42.7923 16.7458 43.8581 17.9533C44.9131 19.1492 45.4456 20.7208 45.4456 22.6433C45.4456 24.66 44.8306 26.29 43.5998 27.515C42.3706 28.7508 40.6715 29.4958 38.5206 29.7483C37.329 29.8883 34.2856 29.965 29.3856 29.965H21.1398V15.55ZM10.0798 67.5058V76H20.4481V67.5058H26.9981V76H37.3673V67.4058C41.0115 67.33 43.624 67.2242 44.9365 67.0833C48.2756 66.7142 51.0931 65.735 53.3723 64.1292C55.6565 62.5292 57.449 60.3833 58.7731 57.71C60.0856 55.0258 60.7481 52.2708 60.7481 49.4383C60.7481 45.8392 59.7223 42.7033 57.684 40.0417C55.6448 37.3808 52.7273 35.4875 48.9315 34.385C51.6265 33.1658 53.759 31.3308 55.329 28.8983C56.899 26.4658 57.684 23.7808 57.684 20.8608C57.684 18.1708 57.0506 15.7375 55.774 13.5683C54.4973 11.3992 52.904 9.66417 50.9931 8.36333C49.084 7.05583 46.9165 6.2 44.4915 5.79C42.7631 5.49667 40.3673 5.315 37.3673 5.2325V-4H26.9981V5.17417H20.4481V-4H10.0798V5.17417H-0.984375V15.55H8.56229V57.13H-0.984375V67.5058H10.0798Z" fill="#90CAFF"/>
</svg>
