<svg width="40" height="33" viewBox="0 0 40 33" fill="none" xmlns="http://www.w3.org/2000/svg">
<path d="M13.7726 20.6985V12.4363H0.046875V20.6985H13.7726ZM26.0257 21.6217L22.6657 23.1916V27.4672L26.2813 32.5556H34.5233C37.5253 32.5556 39.9589 30.1215 39.9589 27.1192V21.6217H26.0257ZM17.4161 27.1792V23.266L14.1252 21.6217H0.046875V27.1192C0.046875 30.1215 2.48052 32.5556 5.48245 32.5556H13.6429L17.4161 27.1792ZM22.6657 5.73785V9.65779H21.7427V5.46836L25.2348 0H14.7033L18.3391 5.63272V9.91127L14.6958 12.2282V20.8746L18.3391 22.695V27.4707L14.7706 32.5556H25.1487L21.7427 27.7618V22.604L25.4618 20.8663V11.5131H39.9589V5.43634C39.9589 2.43403 37.5253 0 34.5233 0H26.3299L22.6657 5.73785ZM14.0999 11.5131L17.4161 9.40413V5.90471L13.6049 0H5.48245C2.48052 0 0.046875 2.43403 0.046875 5.43634V11.5131H14.0999ZM26.385 20.6985V12.4363H39.9589V20.6985H26.385Z" fill="#ECA34C"/>
</svg>
