<svg width="25" height="24" viewBox="0 0 25 24" fill="none" xmlns="http://www.w3.org/2000/svg">
<path fill-rule="evenodd" clip-rule="evenodd" d="M12.9197 11.5061L22.8184 1.60742L22.1113 0.900313L12.2126 10.799L2.31226 0.898675L1.60516 1.60578L11.5055 11.5061L0.898049 22.1135L1.60516 22.8206L12.2126 12.2132L22.8184 22.819L23.5255 22.1119L12.9197 11.5061Z" fill="white"/>
<path d="M22.8184 1.60742L23.1719 1.96097L23.5255 1.60742L23.1719 1.25387L22.8184 1.60742ZM12.9197 11.5061L12.5661 11.1525L12.2126 11.5061L12.5661 11.8596L12.9197 11.5061ZM22.1113 0.900313L22.4648 0.546759L22.1113 0.193206L21.7577 0.546759L22.1113 0.900313ZM12.2126 10.799L11.859 11.1525L12.2126 11.5061L12.5661 11.1525L12.2126 10.799ZM2.31226 0.898675L2.66582 0.545121L2.31226 0.191568L1.95871 0.545121L2.31226 0.898675ZM1.60516 1.60578L1.2516 1.25223L0.898049 1.60578L1.2516 1.95933L1.60516 1.60578ZM11.5055 11.5061L11.859 11.8596L12.2126 11.5061L11.859 11.1525L11.5055 11.5061ZM0.898049 22.1135L0.544496 21.76L0.190942 22.1135L0.544496 22.4671L0.898049 22.1135ZM1.60516 22.8206L1.2516 23.1742L1.60516 23.5277L1.95871 23.1742L1.60516 22.8206ZM12.2126 12.2132L12.5661 11.8596L12.2126 11.5061L11.859 11.8596L12.2126 12.2132ZM22.8184 22.819L22.4648 23.1725L22.8184 23.5261L23.1719 23.1725L22.8184 22.819ZM23.5255 22.1119L23.879 22.4654L24.2326 22.1119L23.879 21.7583L23.5255 22.1119ZM22.4648 1.25387L12.5661 11.1525L13.2732 11.8596L23.1719 1.96097L22.4648 1.25387ZM21.7577 1.25387L22.4648 1.96097L23.1719 1.25387L22.4648 0.546759L21.7577 1.25387ZM12.5661 11.1525L22.4648 1.25387L21.7577 0.546759L11.859 10.4454L12.5661 11.1525ZM1.95871 1.25223L11.859 11.1525L12.5661 10.4454L2.66582 0.545121L1.95871 1.25223ZM1.95871 1.95933L2.66582 1.25223L1.95871 0.545121L1.2516 1.25223L1.95871 1.95933ZM11.859 11.1525L1.95871 1.25223L1.2516 1.95933L11.1519 11.8596L11.859 11.1525ZM1.2516 22.4671L11.859 11.8596L11.1519 11.1525L0.544496 21.76L1.2516 22.4671ZM1.95871 22.4671L1.2516 21.76L0.544496 22.4671L1.2516 23.1742L1.95871 22.4671ZM11.859 11.8596L1.2516 22.4671L1.95871 23.1742L12.5661 12.5668L11.859 11.8596ZM23.1719 22.4654L12.5661 11.8596L11.859 12.5668L22.4648 23.1725L23.1719 22.4654ZM23.1719 21.7583L22.4648 22.4654L23.1719 23.1725L23.879 22.4654L23.1719 21.7583ZM12.5661 11.8596L23.1719 22.4654L23.879 21.7583L13.2732 11.1525L12.5661 11.8596Z" fill="white"/>
</svg>
