<svg width="26" height="24" viewBox="0 0 26 24" fill="none" xmlns="http://www.w3.org/2000/svg">
<path fill-rule="evenodd" clip-rule="evenodd" d="M13.7048 11.5061L23.6055 1.60547L22.8984 0.89836L12.9977 10.799L3.09937 0.900628L2.39226 1.60774L12.2906 11.5061L1.68516 22.1116L2.39227 22.8187L12.9977 12.2132L23.6055 22.8209L24.3126 22.1138L13.7048 11.5061Z" fill="white"/>
<path d="M23.6055 1.60547L23.959 1.95902L24.3126 1.60547L23.959 1.25191L23.6055 1.60547ZM13.7048 11.5061L13.3513 11.1525L12.9977 11.5061L13.3513 11.8596L13.7048 11.5061ZM22.8984 0.89836L23.2519 0.544806L22.8984 0.191253L22.5448 0.544806L22.8984 0.89836ZM12.9977 10.799L12.6442 11.1525L12.9977 11.5061L13.3513 11.1525L12.9977 10.799ZM3.09937 0.900628L3.45293 0.547075L3.09937 0.193522L2.74582 0.547075L3.09937 0.900628ZM2.39226 1.60774L2.03871 1.25418L1.68516 1.60774L2.03871 1.96129L2.39226 1.60774ZM12.2906 11.5061L12.6442 11.8596L12.9977 11.5061L12.6442 11.1525L12.2906 11.5061ZM1.68516 22.1116L1.33161 21.758L0.978052 22.1116L1.33161 22.4651L1.68516 22.1116ZM2.39227 22.8187L2.03871 23.1722L2.39227 23.5258L2.74582 23.1722L2.39227 22.8187ZM12.9977 12.2132L13.3513 11.8596L12.9977 11.5061L12.6442 11.8596L12.9977 12.2132ZM23.6055 22.8209L23.2519 23.1745L23.6055 23.528L23.959 23.1745L23.6055 22.8209ZM24.3126 22.1138L24.6661 22.4674L25.0197 22.1138L24.6661 21.7603L24.3126 22.1138ZM23.2519 1.25191L13.3513 11.1525L14.0584 11.8596L23.959 1.95902L23.2519 1.25191ZM22.5448 1.25191L23.2519 1.95902L23.959 1.25191L23.2519 0.544806L22.5448 1.25191ZM13.3513 11.1525L23.2519 1.25191L22.5448 0.544806L12.6442 10.4454L13.3513 11.1525ZM2.74582 1.25418L12.6442 11.1525L13.3513 10.4454L3.45293 0.547075L2.74582 1.25418ZM2.74582 1.96129L3.45293 1.25418L2.74582 0.547075L2.03871 1.25418L2.74582 1.96129ZM12.6442 11.1525L2.74582 1.25418L2.03871 1.96129L11.9371 11.8596L12.6442 11.1525ZM2.03871 22.4651L12.6442 11.8596L11.9371 11.1525L1.33161 21.758L2.03871 22.4651ZM2.74582 22.4651L2.03871 21.758L1.33161 22.4651L2.03871 23.1722L2.74582 22.4651ZM12.6442 11.8596L2.03871 22.4651L2.74582 23.1722L13.3513 12.5668L12.6442 11.8596ZM23.959 22.4674L13.3513 11.8596L12.6442 12.5668L23.2519 23.1745L23.959 22.4674ZM23.959 21.7603L23.2519 22.4674L23.959 23.1745L24.6661 22.4674L23.959 21.7603ZM13.3513 11.8596L23.959 22.4674L24.6661 21.7603L14.0584 11.1525L13.3513 11.8596Z" fill="white"/>
</svg>
