<svg width="32" height="32" viewBox="0 0 32 32" fill="none" xmlns="http://www.w3.org/2000/svg">
<path d="M17.5887 16.3663H17.0887V16.8663V27.9688H13.4112V16.8512V16.3512H12.9112H9.5V12.825H12.9112H13.4112V12.325V8.98125C13.4112 7.14785 13.9691 5.79159 14.8784 4.89374C15.7892 3.9943 17.1082 3.5 18.735 3.5C19.9868 3.5 21.1005 3.57023 21.73 3.62641V6.72625H19.8287C18.823 6.72625 18.0841 6.96765 17.6221 7.52018C17.1769 8.05256 17.0887 8.76209 17.0887 9.44V12.3288V12.8288H17.5887H21.5006L21.0475 16.3663H17.5887Z" fill="#90CAFF" stroke="#90CAFF"/>
<path d="M1.375 5.875V1.375H5.875" stroke="#90CAFF"/>
<path d="M5.875 30.625L1.375 30.625L1.375 26.125" stroke="#90CAFF"/>
<path d="M30.625 26.125L30.625 30.625L26.125 30.625" stroke="#90CAFF"/>
<path d="M26.125 1.375L30.625 1.375L30.625 5.875" stroke="#90CAFF"/>
</svg>
