<svg width="31" height="31" viewBox="0 0 31 31" fill="none" xmlns="http://www.w3.org/2000/svg">
    <path d="M30.0322 2.81259e-07L25.0656 0V1L29.0322 1V4.9665H30.0322V2.81259e-07Z" fill="#1877F2"/>
    <path d="M0 2.5332e-07V4.9665H1V1H4.96662V2.5332e-07H0Z" fill="#1877F2"/>
    <path d="M0 30.0323H4.96662V29.0323H1L1 25.0658H0V30.0323Z" fill="#1877F2"/>
    <path d="M30.0322 30.0323H25.0656V29.0323H29.0322V25.0658H30.0322V30.0323Z" fill="#1877F2"/>
    <path d="M18.6477 6.31603H21V2.18204C19.8611 2.05899 18.7168 1.99824 17.5717 2.00004C14.1684 2.00004 11.8412 4.15804 11.8412 8.11003V11.516H8V16.144H11.8412V28H16.4456V16.144H20.2743L20.8499 11.516H16.4456V8.56503C16.4456 7.20003 16.796 6.31603 18.6477 6.31603Z" fill="#1877F2"/>
</svg>