<svg width="23" height="23" viewBox="0 0 23 23" fill="none" xmlns="http://www.w3.org/2000/svg">
<circle cx="11.5" cy="11.5" r="10.5" stroke="#EC4C4C" stroke-width="2"/>
<path d="M12.6328 9.54688V18H10.375V9.54688H12.6328ZM10.2344 7.34375C10.2344 7.01562 10.349 6.74479 10.5781 6.53125C10.8073 6.31771 11.1146 6.21094 11.5 6.21094C11.8802 6.21094 12.1849 6.31771 12.4141 6.53125C12.6484 6.74479 12.7656 7.01562 12.7656 7.34375C12.7656 7.67188 12.6484 7.94271 12.4141 8.15625C12.1849 8.36979 11.8802 8.47656 11.5 8.47656C11.1146 8.47656 10.8073 8.36979 10.5781 8.15625C10.349 7.94271 10.2344 7.67188 10.2344 7.34375Z" fill="#EC4C4C"/>
</svg>
