<svg width="12" height="12" viewBox="0 0 12 12" fill="none" xmlns="http://www.w3.org/2000/svg">
<path d="M6.43743 2.57799C6.43743 2.46432 6.39227 2.35531 6.3119 2.27494C6.23153 2.19457 6.12252 2.14941 6.00886 2.14941C5.89519 2.14941 5.78618 2.19457 5.70581 2.27494C5.62544 2.35531 5.58028 2.46432 5.58028 2.57799V5.26813C5.4182 5.36229 5.29169 5.50727 5.22036 5.68061C5.14902 5.85396 5.13684 6.04599 5.18571 6.22695C5.23458 6.40792 5.34176 6.56772 5.49065 6.6816C5.63954 6.79547 5.82184 6.85707 6.00928 6.85684C6.48028 6.85684 6.86171 6.47541 6.86171 6.00441V5.9997L8.42514 5.09713C8.52277 5.03989 8.5938 4.94636 8.62273 4.83695C8.65166 4.72754 8.63613 4.61113 8.57954 4.51312C8.52296 4.41511 8.4299 4.34346 8.32068 4.31381C8.21146 4.28416 8.09495 4.29891 7.99657 4.35484L6.43657 5.25484V2.57841L6.43743 2.57799Z" fill="#90CAFF" fill-opacity="0.7"/>
<path d="M12 6C12 2.68629 9.31371 0 6 0C2.68629 0 0 2.68629 0 6C0 9.31371 2.68629 12 6 12C9.31371 12 12 9.31371 12 6ZM10.7143 6C10.7143 8.60357 8.60357 10.7143 6 10.7143C3.39643 10.7143 1.28571 8.60357 1.28571 6C1.28571 3.39643 3.39643 1.28571 6 1.28571C8.60357 1.28571 10.7143 3.39643 10.7143 6Z" fill="#90CAFF" fill-opacity="0.7"/>
</svg>
