<svg width="212" height="212" viewBox="0 0 212 212" fill="none" xmlns="http://www.w3.org/2000/svg">
<path d="M74.9283 142.85C81.399 142.836 87.9038 140.814 93.4776 136.604L93.4777 136.604C102.242 129.983 106.509 119.674 105.806 109.557L74.9283 142.85ZM74.9283 142.85L74.925 142.854L74.5042 142.849C69.8035 142.795 65.1524 141.646 60.8934 139.562L59.4318 138.847L60.7302 137.866L80.6007 122.855L80.6008 122.855C86.2211 118.61 87.7477 110.602 83.5102 105.038L83.5102 105.038C79.2554 99.4492 71.0313 98.5669 65.3411 102.864C65.3411 102.864 65.3411 102.864 65.3411 102.864L45.4846 117.861L44.1965 118.834L43.8991 117.247C41.8007 106.054 45.7735 94.1707 55.5257 86.8045L55.5258 86.8044C64.2693 80.2021 75.4794 78.9738 85.1241 82.4226L85.1247 82.4228L86.7158 82.9928L88.0553 81.9793L88.056 81.9788L147.461 37.1108L147.461 37.1104L148.8 36.0975L148.686 34.4267C148.686 34.4253 148.686 34.4239 148.686 34.4225C147.945 24.2439 152.128 13.8204 160.877 7.21302C170.629 -0.152312 183.2 -0.753327 193.461 4.26928L194.922 4.98474L193.624 5.96542L173.768 20.9618C168.081 25.2574 166.727 33.3755 170.981 38.9566L170.981 38.9567C175.223 44.5225 183.388 45.2122 189.013 40.966L208.87 25.9685L210.158 24.9952L210.455 26.5826C212.548 37.7711 208.593 49.66 198.842 57.0251C190.075 63.6494 178.953 64.9597 169.357 61.559L167.778 61.0003L166.436 62.0154L166.436 62.0159L107.031 106.883L107.031 106.883L105.692 107.896L105.806 109.556L74.9283 142.85ZM100.151 209.997L99.4418 210.054L99.1551 209.403L92.7118 194.757C89.6165 194.545 86.5359 194.157 83.4852 193.594L73.6294 206.265L73.1928 206.826L72.5194 206.598L61.4926 202.865L60.8156 202.636L60.8133 201.922L60.7603 185.795C56.4001 183.521 52.2117 180.815 48.2376 177.693L33.2074 184.43L32.5591 184.721L32.0713 184.204L24.0928 175.755L23.6006 175.234L23.9361 174.601L31.6282 160.076C29.3125 156.735 27.2555 153.223 25.475 149.572L8.97356 149.123L8.26046 149.104L8.04667 148.424L4.57262 137.364L4.35812 136.682L4.93528 136.258L18.2588 126.487C17.6839 122.731 17.3873 118.943 17.3433 115.152L2.54959 107.69L1.91044 107.367L2.00963 106.658L3.61614 95.1747L3.71498 94.4682L4.41521 94.3317L20.6522 91.1673C21.5827 88.0152 22.7063 84.9227 24.0166 81.9073L13.3047 68.6684L12.8542 68.1115L13.2364 67.5058L19.4291 57.6907L19.8088 57.089L20.5018 57.2504L37.159 61.132C38.1403 59.9995 39.1526 58.8939 40.1948 57.8165L40.1961 57.8151C42.5264 55.4155 44.9999 53.1582 47.6029 51.0555L44.3679 34.4507L44.2312 33.749L44.851 33.3926L54.9304 27.5961L55.5467 27.2417L56.0839 27.7074L68.7938 38.7251C72.2418 37.3758 75.78 36.2671 79.3826 35.407L83.5308 19.1928L83.7076 18.5018L84.4185 18.444L96.0214 17.5004L96.7309 17.4427L97.0177 18.0942L103.748 33.3827C108.221 33.6839 112.678 34.3503 117.071 35.388L127.755 23.0645L128.22 22.5275L128.88 22.7906L139.687 27.097L140.35 27.3614L140.316 28.0747L139.999 34.555L139.976 35.0223L139.603 35.3043L114.378 54.3472L113.995 54.6358L113.531 54.5189C106.305 52.7001 98.8102 52.213 91.4485 53.0397C77.7209 54.5806 64.527 60.7516 54.1684 71.4164C30.502 95.7852 31.1779 134.546 55.6553 158.108L54.9618 158.828L55.6553 158.108C67.514 169.523 82.7653 175.313 98.0357 175.477C114.292 175.652 130.558 169.452 142.76 156.888C162.619 136.438 165.329 105.672 151.218 82.3792L150.75 81.6071L151.471 81.0631L165.519 70.4545L166.381 69.8035L166.964 70.7132C168.622 73.3026 170.13 75.9845 171.481 78.7455L187.859 79.1938L188.572 79.2134L188.785 79.8938L192.259 90.9529L192.474 91.6357L191.897 92.059L178.67 101.761C179.246 105.55 179.553 109.375 179.587 113.207L194.284 120.641L194.922 120.964L194.823 121.672L193.217 133.156L193.118 133.862L192.418 133.999L176.192 137.164C174.839 141.673 173.093 146.055 170.972 150.26L180.636 163.586L181.056 164.166L180.642 164.751L173.941 174.225L173.53 174.806L172.847 174.608L156.931 170.007C156.86 170.083 156.788 170.159 156.718 170.23C154.231 172.792 151.579 175.189 148.778 177.406L151.82 193.048L151.957 193.749L151.337 194.105L141.256 199.901L140.64 200.256L140.103 199.79L128.038 189.332C124.304 190.795 120.482 191.957 116.611 192.847L112.657 208.305L112.48 208.996L111.769 209.054L100.151 209.997ZM90.0918 96.0519L93.8488 100.97L164.265 47.7777L160.518 42.8489L90.0918 96.0519Z" fill="#0D1236" stroke="#90CAFF" stroke-width="2"/>
</svg>
