<svg width="38" height="38" viewBox="0 0 38 38" fill="none" xmlns="http://www.w3.org/2000/svg">
<path d="M19.5 18.5C17.9187 18.5 16.5651 17.937 15.4391 16.8109C14.313 15.6849 13.75 14.3313 13.75 12.75C13.75 11.1687 14.313 9.8151 15.4391 8.68906C16.5651 7.56302 17.9187 7 19.5 7C21.0813 7 22.4349 7.56302 23.5609 8.68906C24.687 9.8151 25.25 11.1687 25.25 12.75C25.25 14.3313 24.687 15.6849 23.5609 16.8109C22.4349 17.937 21.0813 18.5 19.5 18.5ZM10.875 30C10.0844 30 9.40779 29.7187 8.84525 29.1562C8.28175 28.5927 8 27.9156 8 27.125V25.975C8 25.1604 8.20988 24.4115 8.62963 23.7282C9.04842 23.0459 9.60521 22.525 10.3 22.1656C11.7854 21.4229 13.2948 20.8656 14.8281 20.4938C16.3615 20.1229 17.9187 19.9375 19.5 19.9375C21.0813 19.9375 22.6385 20.1229 24.1719 20.4938C25.7052 20.8656 27.2146 21.4229 28.7 22.1656C29.3948 22.525 29.9516 23.0459 30.3704 23.7282C30.7901 24.4115 31 25.1604 31 25.975V27.125C31 27.9156 30.7187 28.5927 30.1562 29.1562C29.5927 29.7187 28.9156 30 28.125 30H10.875Z" fill="#90CAFF" fill-opacity="0.7"/>
<path d="M9.05566 23.9899L9.05576 23.9897C9.4275 23.3841 9.91621 22.9277 10.5268 22.6113C11.9792 21.8853 13.4522 21.342 14.946 20.9797C16.4406 20.6182 17.9584 20.4375 19.5 20.4375C21.0416 20.4375 22.5594 20.6182 24.054 20.9797C25.5478 21.342 27.0207 21.8853 28.4732 22.6112C29.0838 22.9277 29.5725 23.3841 29.9442 23.9897L29.9443 23.9899C30.3149 24.5932 30.5 25.2513 30.5 25.975V27.125C30.5 27.782 30.2721 28.3322 29.8026 28.8026C29.3322 29.2721 28.782 29.5 28.125 29.5H10.875C10.2179 29.5 9.66823 29.2721 9.1988 28.8026C8.72823 28.3321 8.5 27.7818 8.5 27.125V25.975C8.5 25.2513 8.68507 24.5932 9.05566 23.9899ZM19.5 18C18.0524 18 16.8256 17.4904 15.7926 16.4574C14.7596 15.4244 14.25 14.1976 14.25 12.75C14.25 11.3024 14.7596 10.0756 15.7926 9.04262C16.8256 8.00959 18.0524 7.5 19.5 7.5C20.9476 7.5 22.1744 8.00959 23.2074 9.04262C24.2404 10.0756 24.75 11.3024 24.75 12.75C24.75 14.1976 24.2404 15.4244 23.2074 16.4574C22.1744 17.4904 20.9476 18 19.5 18Z" stroke="#90CAFF" stroke-opacity="0.23"/>
<path d="M29 1L37 1L37 9" stroke="#90CAFF" stroke-opacity="0.7"/>
<path d="M29 37L37 37L37 29" stroke="#90CAFF" stroke-opacity="0.7"/>
<path d="M1 9V1H9" stroke="#90CAFF" stroke-opacity="0.7"/>
<path d="M1 29V37H9" stroke="#90CAFF" stroke-opacity="0.7"/>
</svg>
