<svg width="51" height="53" viewBox="0 0 51 53" fill="none" xmlns="http://www.w3.org/2000/svg">
<path d="M20.9688 52.3125C15.5898 52.3125 10.4312 50.1757 6.62774 46.3723C2.82427 42.5688 0.6875 37.4102 0.6875 32.0312C0.6875 26.6523 2.82427 21.4937 6.62774 17.6902C10.4312 13.8868 15.5898 11.75 20.9688 11.75C21.4577 11.75 21.9267 11.9443 22.2725 12.29C22.6182 12.6358 22.8125 13.1048 22.8125 13.5938V30.1875H39.4062C39.8952 30.1875 40.3642 30.3818 40.71 30.7275C41.0557 31.0733 41.25 31.5423 41.25 32.0312C41.25 37.4102 39.1132 42.5688 35.3098 46.3723C31.5063 50.1757 26.3477 52.3125 20.9688 52.3125ZM19.125 15.5481C16.0187 15.8937 13.0731 17.1096 10.6274 19.0558C8.18179 21.0019 6.3355 23.5992 5.30115 26.5486C4.2668 29.498 4.08646 32.6795 4.78089 35.7269C5.47531 38.7743 7.01627 41.5636 9.22633 43.7737C11.4364 45.9837 14.2257 47.5247 17.2731 48.2191C20.3205 48.9135 23.502 48.7332 26.4514 47.6988C29.4008 46.6645 31.9981 44.8182 33.9442 42.3726C35.8904 39.9269 37.1063 36.9813 37.4519 33.875H22.8125C21.8345 33.875 20.8966 33.4865 20.205 32.795C19.5135 32.1034 19.125 31.1655 19.125 30.1875V15.5481Z" fill="#100F0F"/>
<path d="M48.625 22.8125H32.0312C31.0533 22.8125 30.1153 22.424 29.4238 21.7325C28.7323 21.0409 28.3438 20.103 28.3438 19.125V2.53125C28.3438 2.04226 28.538 1.57329 28.8838 1.22752C29.2295 0.881752 29.6985 0.6875 30.1875 0.6875C35.5664 0.6875 40.725 2.82427 44.5285 6.62774C48.332 10.4312 50.4688 15.5898 50.4688 20.9688C50.4688 21.4577 50.2745 21.9267 49.9287 22.2725C49.583 22.6182 49.114 22.8125 48.625 22.8125ZM32.0312 19.125H46.6706C46.2511 15.3868 44.5738 11.9022 41.914 9.24228C39.2541 6.5824 35.7694 4.90519 32.0312 4.48562V19.125Z" fill="#100F0F"/>
</svg>
