<svg width="69" height="81" viewBox="0 0 69 81" fill="none" xmlns="http://www.w3.org/2000/svg">
<path fill-rule="evenodd" clip-rule="evenodd" d="M56.071 9.77604C56.071 9.45624 56.198 9.14959 56.4242 8.92356C56.6503 8.69734 56.9569 8.57031 57.2767 8.57031C59.6437 8.57031 64.8726 8.57031 67.2396 8.57031C67.5594 8.57031 67.866 8.69734 68.0921 8.92356C68.3183 9.14959 68.4453 9.45624 68.4453 9.77604C68.4453 15.2832 68.4453 38.0137 68.4453 43.5208C68.4453 43.8406 68.3183 44.1473 68.0921 44.3733C67.866 44.5995 67.5594 44.7265 67.2396 44.7265C64.8726 44.7265 59.6437 44.7265 57.2767 44.7265C56.9569 44.7265 56.6503 44.5995 56.4242 44.3733C56.198 44.1473 56.071 43.8406 56.071 43.5208C56.071 38.0137 56.071 15.2832 56.071 9.77604Z" fill="#101222"/>
<path fill-rule="evenodd" clip-rule="evenodd" d="M62.0664 2L62.4531 51.3039Z" fill="#101222"/>
<path d="M62.0664 2L62.4531 51.3039" stroke="#101222" stroke-width="3" stroke-miterlimit="1.5" stroke-linecap="round" stroke-linejoin="round"/>
<path fill-rule="evenodd" clip-rule="evenodd" d="M37.3835 26.987C37.3835 26.6672 37.5105 26.3605 37.7367 26.1345C37.9628 25.9083 38.2694 25.7812 38.5892 25.7812C40.9562 25.7812 46.1851 25.7812 48.5521 25.7812C48.8719 25.7812 49.1785 25.9083 49.4046 26.1345C49.6308 26.3605 49.7578 26.6672 49.7578 26.987C49.7578 32.4941 49.7578 55.2246 49.7578 60.7318C49.7578 61.0516 49.6308 61.3582 49.4046 61.5842C49.1785 61.8104 48.8719 61.9375 48.5521 61.9375C46.1851 61.9375 40.9562 61.9375 38.5892 61.9375C38.2694 61.9375 37.9628 61.8104 37.7367 61.5842C37.5105 61.3582 37.3835 61.0516 37.3835 60.7318C37.3835 55.2246 37.3835 32.4941 37.3835 26.987Z" fill="#101222"/>
<path fill-rule="evenodd" clip-rule="evenodd" d="M43.3789 19.2109L43.7656 68.5149Z" fill="#101222"/>
<path d="M43.3789 19.2109L43.7656 68.5149" stroke="#101222" stroke-width="3" stroke-miterlimit="1.5" stroke-linecap="round" stroke-linejoin="round"/>
<path fill-rule="evenodd" clip-rule="evenodd" d="M18.6882 21.1823C18.6882 20.8625 18.8152 20.5558 19.0414 20.3298C19.2674 20.1036 19.5741 19.9766 19.8939 19.9766C22.2609 19.9766 27.4898 19.9766 29.8568 19.9766C30.1766 19.9766 30.4832 20.1036 30.7093 20.3298C30.9355 20.5558 31.0625 20.8625 31.0625 21.1823C31.0625 26.6894 31.0625 49.4199 31.0625 54.9271C31.0625 55.2469 30.9355 55.5535 30.7093 55.7795C30.4832 56.0058 30.1766 56.1328 29.8568 56.1328C27.4898 56.1328 22.2609 56.1328 19.8939 56.1328C19.5741 56.1328 19.2674 56.0058 19.0414 55.7795C18.8152 55.5535 18.6882 55.2469 18.6882 54.9271C18.6882 49.4199 18.6882 26.6894 18.6882 21.1823Z" fill="#101222"/>
<path fill-rule="evenodd" clip-rule="evenodd" d="M24.6836 13.4062L25.0703 62.7102Z" fill="#101222"/>
<path d="M24.6836 13.4062L25.0703 62.7102" stroke="#101222" stroke-width="3" stroke-miterlimit="1.5" stroke-linecap="round" stroke-linejoin="round"/>
<path fill-rule="evenodd" clip-rule="evenodd" d="M0.000676155 37.6198C0.000676155 37.3 0.127706 36.9933 0.353924 36.7673C0.579948 36.5411 0.8866 36.4141 1.2064 36.4141C3.57338 36.4141 8.8023 36.4141 11.1693 36.4141C11.4891 36.4141 11.7957 36.5411 12.0218 36.7673C12.248 36.9933 12.375 37.3 12.375 37.6198C12.375 43.1269 12.375 65.8574 12.375 71.3646C12.375 71.6844 12.248 71.991 12.0218 72.217C11.7957 72.4433 11.4891 72.5703 11.1693 72.5703C8.8023 72.5703 3.57338 72.5703 1.2064 72.5703C0.8866 72.5703 0.579948 72.4433 0.353924 72.217C0.127706 71.991 0.000676155 71.6844 0.000676155 71.3646C0.000676155 65.8574 0.000676155 43.1269 0.000676155 37.6198Z" fill="#101222"/>
<path fill-rule="evenodd" clip-rule="evenodd" d="M5.99611 29.8438L6.38281 79.1477Z" fill="#101222"/>
<path d="M5.99611 29.8438L6.38281 79.1477" stroke="#101222" stroke-width="3" stroke-miterlimit="1.5" stroke-linecap="round" stroke-linejoin="round"/>
</svg>
