<svg width="30" height="26" viewBox="0 0 30 26" fill="none" xmlns="http://www.w3.org/2000/svg">
<path d="M18.457 14.6406C19.043 13.7188 19.3867 12.625 19.3867 11.4492C19.3867 8.16406 16.7266 5.5 13.4453 5.5C10.1602 5.5 7.5 8.16406 7.5 11.4492C7.5 14.7344 10.1602 17.3984 13.4414 17.3984C14.6328 17.3984 15.7422 17.0469 16.6719 16.4453L16.9414 16.2578L21.1836 20.5L22.5 19.1602L18.2617 14.918L18.457 14.6406ZM16.7734 8.125C17.6602 9.01172 18.1484 10.1914 18.1484 11.4453C18.1484 12.6992 17.6602 13.8789 16.7734 14.7656C15.8867 15.6523 14.707 16.1406 13.4531 16.1406C12.1992 16.1406 11.0195 15.6523 10.1328 14.7656C9.24609 13.8789 8.75781 12.6992 8.75781 11.4453C8.75781 10.1914 9.24609 9.01172 10.1328 8.125C11.0195 7.23828 12.1992 6.75 13.4531 6.75C14.707 6.75 15.8867 7.23828 16.7734 8.125Z" fill="#90CAFF"/>
<path d="M1 7V1H7" stroke="#90CAFF"/>
<path d="M29 19L29 25L23 25" stroke="#90CAFF"/>
<path d="M7 25L1 25L1 19" stroke="#90CAFF"/>
<path d="M23 1L29 1L29 7" stroke="#90CAFF"/>
</svg>
