<svg width="29" height="26" viewBox="0 0 29 26" fill="none" xmlns="http://www.w3.org/2000/svg">
<path d="M0.5 7V1H6.2931" stroke="#90CAFF"/>
<path d="M28.5 19L28.5 25L22.7069 25" stroke="#90CAFF"/>
<path d="M6.2931 25L0.5 25L0.5 19" stroke="#90CAFF"/>
<path d="M22.7069 1L28.5 1L28.5 7" stroke="#90CAFF"/>
<mask id="mask0_1004_52519" style="mask-type:alpha" maskUnits="userSpaceOnUse" x="8" y="5" width="15" height="16">
<path d="M18.957 14.6406C19.543 13.7188 19.8867 12.625 19.8867 11.4492C19.8867 8.16406 17.2266 5.5 13.9453 5.5C10.6602 5.5 8 8.16406 8 11.4492C8 14.7344 10.6602 17.3984 13.9414 17.3984C15.1328 17.3984 16.2422 17.0469 17.1719 16.4453L17.4414 16.2578L21.6836 20.5L23 19.1602L18.7617 14.918L18.957 14.6406ZM17.2734 8.125C18.1602 9.01172 18.6484 10.1914 18.6484 11.4453C18.6484 12.6992 18.1602 13.8789 17.2734 14.7656C16.3867 15.6523 15.207 16.1406 13.9531 16.1406C12.6992 16.1406 11.5195 15.6523 10.6328 14.7656C9.74609 13.8789 9.25781 12.6992 9.25781 11.4453C9.25781 10.1914 9.74609 9.01172 10.6328 8.125C11.5195 7.23828 12.6992 6.75 13.9531 6.75C15.207 6.75 16.3867 7.23828 17.2734 8.125Z" fill="#E4E4E4"/>
</mask>
<g mask="url(#mask0_1004_52519)">
<path d="M18.957 14.6406C19.543 13.7188 19.8867 12.625 19.8867 11.4492C19.8867 8.16406 17.2266 5.5 13.9453 5.5C10.6602 5.5 8 8.16406 8 11.4492C8 14.7344 10.6602 17.3984 13.9414 17.3984C15.1328 17.3984 16.2422 17.0469 17.1719 16.4453L17.4414 16.2578L21.6836 20.5L23 19.1602L18.7617 14.918L18.957 14.6406ZM17.2734 8.125C18.1602 9.01172 18.6484 10.1914 18.6484 11.4453C18.6484 12.6992 18.1602 13.8789 17.2734 14.7656C16.3867 15.6523 15.207 16.1406 13.9531 16.1406C12.6992 16.1406 11.5195 15.6523 10.6328 14.7656C9.74609 13.8789 9.25781 12.6992 9.25781 11.4453C9.25781 10.1914 9.74609 9.01172 10.6328 8.125C11.5195 7.23828 12.6992 6.75 13.9531 6.75C15.207 6.75 16.3867 7.23828 17.2734 8.125Z" fill="#90CAFF"/>
<rect x="3" y="4" width="23" height="19" fill="#90CAFF"/>
</g>
</svg>
