<svg width="26" height="24" viewBox="0 0 26 24" fill="none" xmlns="http://www.w3.org/2000/svg">
<path d="M13.619 18.9474C13.619 14.7663 16.9495 11.3684 21.0476 11.3684C22.4095 11.3684 23.6724 11.7474 24.7619 12.3916V2.52632C24.7619 1.8563 24.501 1.21372 24.0366 0.739941C23.5723 0.266165 22.9424 0 22.2857 0H2.47619C1.1019 0 0 1.12421 0 2.52632V17.6842C0 18.3542 0.260884 18.9968 0.725259 19.4706C1.18964 19.9444 1.81946 20.2105 2.47619 20.2105H13.7305C13.6686 19.7937 13.619 19.3768 13.619 18.9474ZM2.47619 5.05263V2.52632L12.381 8.8421L22.2857 2.52632V5.05263L12.381 11.3684L2.47619 5.05263ZM22.2857 13.8947V17.6842H26V20.2105H22.2857V24H19.8095V20.2105H16.0952V17.6842H19.8095V13.8947H22.2857Z" fill="#90CAFF"/>
</svg>
