<svg width="28" height="26" viewBox="0 0 28 26" fill="none" xmlns="http://www.w3.org/2000/svg">
<path fill-rule="evenodd" clip-rule="evenodd" d="M13.428 6.57143C13.428 7.4393 12.7245 8.14286 11.8566 8.14286C10.9887 8.14286 10.2852 7.4393 10.2852 6.57143C10.2852 5.70355 10.9887 5 11.8566 5C12.7245 5 13.428 5.70355 13.428 6.57143ZM11.8566 4C12.7508 4 13.5384 4.45646 13.9992 5.1491C14.4599 4.45646 15.2475 4 16.1417 4C17.5619 4 18.7132 5.15127 18.7132 6.57143C18.7132 7.22975 18.4658 7.83029 18.0589 8.28516H22H23V9.28516V12.428V13.428H22.0984V13.5703V20.9989V21.9989H21.0984H14.5703V21.9994H13.5703V21.9989H6.89844H5.89844V20.9989V13.5703V13.428H5V12.428V9.28516V8.28516H6H9.93942C9.53254 7.83029 9.28516 7.22975 9.28516 6.57143C9.28516 5.15127 10.4364 4 11.8566 4ZM6 9.28516H13.5703V12.428H6V9.28516ZM21.0984 20.9989H14.5703V13.5703H21.0984V20.9989ZM13.5703 20.9989V13.5703H6.89844V20.9989H13.5703ZM22 12.428H14.5703V9.28516H22V12.428ZM16.1417 8.14286C17.0096 8.14286 17.7132 7.4393 17.7132 6.57143C17.7132 5.70355 17.0096 5 16.1417 5C15.2739 5 14.5703 5.70355 14.5703 6.57143C14.5703 7.4393 15.2739 8.14286 16.1417 8.14286Z" fill="#90CAFF"/>
<path d="M27 21L27 25L23 25" stroke="#90CAFF"/>
<path d="M23 1L27 1L27 5" stroke="#90CAFF"/>
<path d="M5 1L1 1L1 5" stroke="#90CAFF"/>
<path d="M1 21L1 25L5 25" stroke="#90CAFF"/>
</svg>
