<svg width="18" height="17" viewBox="0 0 18 17" fill="none" xmlns="http://www.w3.org/2000/svg">
<path fill-rule="evenodd" clip-rule="evenodd" d="M9.85013 8.43503L16.2129 2.07226L15.5058 1.36516L9.14302 7.72792L2.77786 1.36276L2.07075 2.06987L8.43591 8.43503L1.36365 15.5073L2.07075 16.2144L9.14302 9.14213L16.2129 16.212L16.92 15.5049L9.85013 8.43503Z" fill="white"/>
<path d="M16.2129 2.07226L16.5664 2.42582L16.92 2.07226L16.5664 1.71871L16.2129 2.07226ZM9.85013 8.43503L9.49657 8.08147L9.14302 8.43503L9.49657 8.78858L9.85013 8.43503ZM15.5058 1.36516L15.8593 1.0116L15.5058 0.65805L15.1522 1.0116L15.5058 1.36516ZM9.14302 7.72792L8.78947 8.08147L9.14302 8.43503L9.49657 8.08147L9.14302 7.72792ZM2.77786 1.36276L3.13142 1.00921L2.77786 0.655657L2.42431 1.00921L2.77786 1.36276ZM2.07075 2.06987L1.7172 1.71632L1.36365 2.06987L1.7172 2.42342L2.07075 2.06987ZM8.43591 8.43503L8.78947 8.78858L9.14302 8.43503L8.78947 8.08147L8.43591 8.43503ZM1.36365 15.5073L1.01009 15.1537L0.656541 15.5073L1.01009 15.8608L1.36365 15.5073ZM2.07075 16.2144L1.7172 16.568L2.07075 16.9215L2.42431 16.568L2.07075 16.2144ZM9.14302 9.14213L9.49657 8.78858L9.14302 8.43503L8.78947 8.78858L9.14302 9.14213ZM16.2129 16.212L15.8593 16.5656L16.2129 16.9191L16.5664 16.5656L16.2129 16.212ZM16.92 15.5049L17.2736 15.8585L17.6271 15.5049L17.2736 15.1513L16.92 15.5049ZM15.8593 1.71871L9.49657 8.08147L10.2037 8.78858L16.5664 2.42582L15.8593 1.71871ZM15.1522 1.71871L15.8593 2.42582L16.5664 1.71871L15.8593 1.0116L15.1522 1.71871ZM9.49657 8.08147L15.8593 1.71871L15.1522 1.0116L8.78947 7.37437L9.49657 8.08147ZM2.42431 1.71632L8.78947 8.08147L9.49657 7.37437L3.13142 1.00921L2.42431 1.71632ZM2.42431 2.42342L3.13142 1.71632L2.42431 1.00921L1.7172 1.71632L2.42431 2.42342ZM8.78947 8.08147L2.42431 1.71632L1.7172 2.42342L8.08236 8.78858L8.78947 8.08147ZM1.7172 15.8608L8.78947 8.78858L8.08236 8.08147L1.01009 15.1537L1.7172 15.8608ZM2.42431 15.8608L1.7172 15.1537L1.01009 15.8608L1.7172 16.568L2.42431 15.8608ZM8.78947 8.78858L1.7172 15.8608L2.42431 16.568L9.49657 9.49569L8.78947 8.78858ZM16.5664 15.8585L9.49657 8.78858L8.78947 9.49569L15.8593 16.5656L16.5664 15.8585ZM16.5664 15.1513L15.8593 15.8585L16.5664 16.5656L17.2736 15.8585L16.5664 15.1513ZM9.49657 8.78858L16.5664 15.8585L17.2736 15.1513L10.2037 8.08147L9.49657 8.78858Z" fill="white"/>
</svg>
