<svg width="30" height="29" viewBox="0 0 30 29" fill="none" xmlns="http://www.w3.org/2000/svg">
    <path d="M1.4375 22.2553V6.74468L7.29074 1H22.7043L28.5575 6.74468V22.2553L22.7043 28H7.29074L1.4375 22.2553Z" stroke="#90CAFF"/>
    <path d="M11.152 18.144C11.152 17.8453 11.2 17.568 11.296 17.312C11.4027 17.0453 11.536 16.8213 11.696 16.64C11.824 16.4907 12.016 16.3307 12.272 16.16C12.5387 15.9787 12.7893 15.8293 13.024 15.712C13.2267 15.6053 13.4933 15.4827 13.824 15.344L15.552 14.576C16.2347 14.2773 16.576 13.8133 16.576 13.184V11.76C16.576 11.2693 16.4267 10.944 16.128 10.784C15.8293 10.6133 15.3067 10.528 14.56 10.528C13.824 10.528 12.8107 10.64 11.52 10.864V9.744C12.5973 9.54133 13.712 9.44 14.864 9.44C16.016 9.44 16.848 9.616 17.36 9.968C17.872 10.3093 18.128 10.8853 18.128 11.696V13.392C18.128 13.776 18.064 14.096 17.936 14.352C17.808 14.5973 17.6 14.8213 17.312 15.024C17.0347 15.216 16.624 15.4347 16.08 15.68L13.68 16.784C12.976 17.104 12.624 17.5733 12.624 18.192V18.88H18.128V20H11.152V18.144Z" fill="#90CAFF"/>
</svg>
