<svg width="30" height="29" viewBox="0 0 30 29" fill="none" xmlns="http://www.w3.org/2000/svg">
    <path d="M1.4375 22.2553V6.74468L7.29074 1H22.7043L28.5575 6.74468V22.2553L22.7043 28H7.29074L1.4375 22.2553Z" stroke="#90CAFF"/>
    <path d="M14.256 20.16C13.36 20.16 12.352 20.0587 11.232 19.856V18.704C12.5013 18.9707 13.5627 19.104 14.416 19.104C15.8347 19.104 16.544 18.704 16.544 17.904V16.128C16.544 15.6907 16.3093 15.4027 15.84 15.264C15.616 15.2107 15.4133 15.1787 15.232 15.168C15.0613 15.1467 14.8373 15.136 14.56 15.136H12.56V14.144H14.288C14.5653 14.144 14.7893 14.1387 14.96 14.128C15.1307 14.1067 15.328 14.064 15.552 14C15.7867 13.9467 15.968 13.8453 16.096 13.696C16.224 13.5467 16.288 13.3547 16.288 13.12V11.264C16.288 10.72 15.648 10.448 14.368 10.448C13.5147 10.448 12.5387 10.5333 11.44 10.704V9.6C12.3573 9.504 13.328 9.456 14.352 9.456C15.536 9.456 16.3947 9.58933 16.928 9.856C17.472 10.112 17.744 10.5547 17.744 11.184V13.184C17.744 13.5147 17.6107 13.792 17.344 14.016C17.0773 14.2293 16.736 14.368 16.32 14.432V14.496C16.576 14.5387 16.784 14.5867 16.944 14.64C17.1147 14.6827 17.296 14.752 17.488 14.848C17.8613 15.04 18.048 15.376 18.048 15.856V17.936C18.048 18.2987 17.968 18.624 17.808 18.912C17.648 19.2 17.4453 19.424 17.2 19.584C16.9867 19.7333 16.704 19.856 16.352 19.952C16 20.0373 15.6533 20.096 15.312 20.128C14.9067 20.1493 14.5547 20.16 14.256 20.16Z" fill="#90CAFF"/>
</svg>
