<svg width="29" height="29" viewBox="0 0 29 29" fill="none" xmlns="http://www.w3.org/2000/svg">
<path d="M1 7V1H7" stroke="#E4E4E4"/>
<path d="M7 28L1 28L1 22" stroke="#E4E4E4"/>
<path d="M28 22L28 28L22 28" stroke="#E4E4E4"/>
<path d="M22 1L28 1L28 7" stroke="#E4E4E4"/>
<path d="M20.8657 13.6C20.6069 13.2625 20.2919 12.97 19.9994 12.6775C19.2457 12.0025 18.3907 11.5188 17.6707 10.81C15.9944 9.1675 15.6232 6.45625 16.6919 4.375C15.6232 4.63375 14.6894 5.21875 13.8907 5.86C10.9769 8.2 9.82941 12.3288 11.2019 15.8725C11.2469 15.985 11.2919 16.0975 11.2919 16.2438C11.2919 16.4913 11.1232 16.7163 10.8982 16.8063C10.6394 16.9187 10.3694 16.8513 10.1557 16.6713C10.0914 16.6181 10.038 16.5532 9.99816 16.48C8.72691 14.8713 8.52441 12.565 9.37941 10.72C7.50066 12.25 6.47691 14.8375 6.62316 17.2788C6.69066 17.8413 6.75816 18.4038 6.94941 18.9663C7.10691 19.6413 7.41066 20.3163 7.74816 20.9125C8.96316 22.8588 11.0669 24.2537 13.3282 24.535C15.7357 24.8388 18.3119 24.4 20.1569 22.735C22.2157 20.8675 22.9357 17.875 21.8782 15.31L21.7319 15.0175C21.4957 14.5 20.8657 13.6 20.8657 13.6ZM17.3107 20.6875C16.9957 20.9575 16.4782 21.25 16.0732 21.3625C14.8132 21.8125 13.5532 21.1825 12.8107 20.44C14.1494 20.125 14.9482 19.135 15.1844 18.1337C15.3757 17.2337 15.0157 16.4913 14.8694 15.625C14.7344 14.7925 14.7569 14.0837 15.0607 13.3075C15.2744 13.735 15.4994 14.1625 15.7694 14.5C16.6357 15.625 17.9969 16.12 18.2894 17.65C18.3344 17.8075 18.3569 17.965 18.3569 18.1337C18.3907 19.0562 17.9857 20.0688 17.3107 20.6875Z" fill="#90CAFF"/>
</svg>
