<svg width="29" height="29" viewBox="0 0 29 29" fill="none" xmlns="http://www.w3.org/2000/svg">
<path d="M1 7V1H7" stroke="#E4E4E4"/>
<path d="M7 28L1 28L1 22" stroke="#E4E4E4"/>
<path d="M28 22L28 28L22 28" stroke="#E4E4E4"/>
<path d="M22 1L28 1L28 7" stroke="#E4E4E4"/>
<g clip-path="url(#clip0_1302_51444)">
<path d="M5 20.0404V21.625C5 22.935 8.19141 24 12.125 24C16.0586 24 19.25 22.935 19.25 21.625V20.0404C17.7174 21.1203 14.9156 21.625 12.125 21.625C9.33437 21.625 6.53262 21.1203 5 20.0404ZM16.875 9.75C20.8086 9.75 24 8.68496 24 7.375C24 6.06504 20.8086 5 16.875 5C12.9414 5 9.75 6.06504 9.75 7.375C9.75 8.68496 12.9414 9.75 16.875 9.75ZM5 16.1477V18.0625C5 19.3725 8.19141 20.4375 12.125 20.4375C16.0586 20.4375 19.25 19.3725 19.25 18.0625V16.1477C17.7174 17.4094 14.9119 18.0625 12.125 18.0625C9.33809 18.0625 6.53262 17.4094 5 16.1477ZM20.4375 16.5559C22.5639 16.1439 24 15.3795 24 14.5V12.9154C23.1391 13.524 21.8736 13.9396 20.4375 14.1957V16.5559ZM12.125 10.9375C8.19141 10.9375 5 12.266 5 13.9062C5 15.5465 8.19141 16.875 12.125 16.875C16.0586 16.875 19.25 15.5465 19.25 13.9062C19.25 12.266 16.0586 10.9375 12.125 10.9375ZM20.2631 13.0268C22.4896 12.626 24 11.8393 24 10.9375V9.35293C22.6826 10.2844 20.4189 10.7854 18.0365 10.9041C19.1312 11.4348 19.9365 12.1473 20.2631 13.0268Z" fill="#90CAFF"/>
</g>
<defs>
<clipPath id="clip0_1302_51444">
<rect width="19" height="19" fill="white" transform="translate(5 5)"/>
</clipPath>
</defs>
</svg>
