<svg width="29" height="29" viewBox="0 0 29 29" fill="none" xmlns="http://www.w3.org/2000/svg">
<g clip-path="url(#clip0_583_10783)">
<path d="M23.3514 5.33473L3.73407 12.9012C2.39515 13.4384 2.40309 14.1852 3.49002 14.5182L8.38265 16.0453L10.2547 21.7848C10.4823 22.413 10.3701 22.6621 11.0297 22.6621C11.5388 22.6621 11.7647 22.43 12.0482 22.153C12.2285 21.9766 13.299 20.9358 14.4944 19.7736L19.5836 23.5338C20.5201 24.0504 21.1963 23.7828 21.4295 22.664L24.7702 6.92134C25.1122 5.55008 24.2474 4.92808 23.3514 5.33473ZM9.15049 15.6944L20.1785 8.73677C20.729 8.4029 21.2338 8.5824 20.8194 8.95029L11.3765 17.4701L11.0088 21.3917L9.15049 15.6944Z" fill="#90CAFF"/>
<path d="M0.365356 4.71249V0.362488H4.71536" stroke="#90CAFF"/>
<path d="M4.71536 28.6375L0.365356 28.6375L0.365356 24.2875" stroke="#90CAFF"/>
<path d="M28.6375 24.2875L28.6375 28.6375L24.2875 28.6375" stroke="#90CAFF"/>
<path d="M24.2875 0.362488L28.6375 0.362488L28.6375 4.71249" stroke="#90CAFF"/>
</g>
<defs>
<clipPath id="clip0_583_10783">
<rect width="29" height="29" fill="white"/>
</clipPath>
</defs>
</svg>
