<svg width="31" height="28" viewBox="0 0 31 28" fill="none" xmlns="http://www.w3.org/2000/svg">
<g clip-path="url(#clip0_1748_72118)">
<path d="M24.1928 5.1339L3.86803 12.4206C2.48083 12.938 2.48906 13.6571 3.61518 13.9778L8.68425 15.4485L10.6238 20.9758C10.8596 21.5807 10.7434 21.8207 11.4268 21.8207C11.9542 21.8207 12.1882 21.5971 12.482 21.3304C12.6688 21.1605 13.7779 20.1582 15.0164 19.0389L20.2891 22.6601C21.2594 23.1576 21.96 22.8999 22.2016 21.8225L25.6628 6.66185C26.0171 5.34129 25.1211 4.74229 24.1928 5.1339ZM9.47978 15.1106L20.9055 8.41016C21.4759 8.08863 21.9989 8.2615 21.5695 8.61579L11.7861 16.8207L11.4051 20.5972L9.47978 15.1106Z" fill="#90CAFF"/>
<path d="M0.375 4.54074V0.351562H4.88187" stroke="#90CAFF" stroke-width="0.997423"/>
<path d="M4.88187 27.5781L0.375 27.5781L0.375 23.3889" stroke="#90CAFF" stroke-width="0.997423"/>
<path d="M29.668 23.3889L29.668 27.5781L25.1611 27.5781" stroke="#90CAFF" stroke-width="0.997423"/>
<path d="M25.1611 0.351562L29.668 0.351562L29.668 4.54074" stroke="#90CAFF" stroke-width="0.997423"/>
</g>
<defs>
<clipPath id="clip0_1748_72118">
<rect width="30.0458" height="27.9278" fill="white"/>
</clipPath>
</defs>
</svg>
