<svg width="32" height="32" viewBox="0 0 32 32" fill="none" xmlns="http://www.w3.org/2000/svg">
<path d="M23.4623 12.6774C23.4623 17.7549 19.5923 23.6199 12.5198 23.6199C10.3523 23.6199 8.32732 22.9824 6.63232 21.9024C6.93232 21.9399 7.23982 21.9549 7.54732 21.9549C9.34732 21.9549 11.0048 21.3399 12.3248 20.3049C10.6448 20.2749 9.21982 19.1649 8.73232 17.6349C8.96482 17.6799 9.20482 17.7024 9.45232 17.7024C9.80482 17.7024 10.1423 17.6574 10.4648 17.5674C8.70982 17.2149 7.38232 15.6549 7.38232 13.7949V13.7424C7.89982 14.0274 8.49232 14.1999 9.12232 14.2224C8.09482 13.5324 7.41232 12.3549 7.41232 11.0199C7.41232 10.3149 7.59982 9.65488 7.92982 9.08488C9.82732 11.4099 12.6623 12.9474 15.8573 13.1049C15.7973 12.8199 15.7598 12.5274 15.7598 12.2274C15.7598 10.1049 17.4848 8.37988 19.6073 8.37988C20.7098 8.37988 21.7073 8.84488 22.4123 9.59488C23.2898 9.42238 24.1148 9.10738 24.8573 8.66488C24.5648 9.56488 23.9573 10.3224 23.1623 10.7949C23.9423 10.6974 24.6848 10.4949 25.3748 10.1874C24.8573 10.9599 24.2048 11.6424 23.4548 12.1824C23.4623 12.3474 23.4623 12.5124 23.4623 12.6774Z" fill="#90CAFF"/>
<path d="M1.375 5.875V1.375H5.875" stroke="#90CAFF"/>
<path d="M5.875 30.625L1.375 30.625L1.375 26.125" stroke="#90CAFF"/>
<path d="M30.5508 26.125L30.5508 30.625L26.0508 30.625" stroke="#90CAFF"/>
<path d="M26.125 1.375L30.625 1.375L30.625 5.875" stroke="#90CAFF"/>
</svg>
