<svg width="90" height="80" viewBox="0 0 90 80" fill="none" xmlns="http://www.w3.org/2000/svg">
<mask id="mask0_1922_72900" style="mask-type:luminance" maskUnits="userSpaceOnUse" x="0" y="0" width="90" height="80">
<path d="M0 0H89.9796V80H0V0Z" fill="white"/>
</mask>
<g mask="url(#mask0_1922_72900)">
<path d="M83.1748 36.9688V21.8501C83.1748 21.5789 83.1611 21.3068 83.1346 21.0365C83.1082 20.7653 83.0681 20.4971 83.0152 20.2298C82.9613 19.9635 82.8957 19.6991 82.8164 19.4387C82.7381 19.1793 82.6461 18.9227 82.5423 18.6711C82.4385 18.4205 82.322 18.1747 82.1938 17.9349C82.0655 17.695 81.9255 17.462 81.7747 17.2358C81.6239 17.0097 81.4614 16.7913 81.2891 16.5808C81.1168 16.3703 80.9347 16.1687 80.7418 15.9768C80.5499 15.7839 80.3482 15.6018 80.1377 15.4295C79.9282 15.2562 79.7099 15.0946 79.4837 14.9438C79.2575 14.7921 79.0245 14.6531 78.7847 14.5248C78.5448 14.3966 78.299 14.28 78.0474 14.1763C77.7968 14.0715 77.5403 13.9805 77.2798 13.9011C77.0204 13.8218 76.7561 13.7562 76.4897 13.7034C76.2225 13.6505 75.9542 13.6104 75.683 13.5839C75.4128 13.5565 75.1416 13.5438 74.8694 13.5438H72.8427L69.8204 1.51505C69.7949 1.40932 69.7587 1.30749 69.7137 1.20861C69.6686 1.10972 69.6138 1.01671 69.5502 0.928598C69.4865 0.840483 69.4151 0.75922 69.3348 0.685791C69.2555 0.611382 69.1693 0.546764 69.0773 0.489C68.9843 0.432214 68.8873 0.38424 68.7855 0.347036C68.6837 0.308853 68.5789 0.281439 68.4722 0.263816C68.3645 0.246193 68.2568 0.239339 68.1482 0.243256C68.0395 0.246193 67.9328 0.260879 67.827 0.285355L13.2131 13.5438H8.42939C8.15721 13.5438 7.88601 13.5565 7.61579 13.5839C7.34459 13.6104 7.07633 13.6505 6.80904 13.7034C6.54274 13.7562 6.27937 13.8218 6.01894 13.9011C5.75851 13.9805 5.50298 14.0715 5.25136 14.1763C4.99974 14.28 4.754 14.3966 4.51413 14.5248C4.27426 14.6531 4.04124 14.7921 3.81508 14.9438C3.58892 15.0946 3.37156 15.2562 3.16107 15.4295C2.95057 15.6018 2.74888 15.7839 2.55699 15.9768C2.36509 16.1687 2.18201 16.3703 2.00969 16.5808C1.83738 16.7913 1.67485 17.0097 1.52408 17.2358C1.3733 17.462 1.2333 17.695 1.10504 17.9349C0.976782 18.1747 0.861253 18.4205 0.756494 18.6711C0.652713 18.9227 0.560682 19.1793 0.482357 19.4387C0.403053 19.6991 0.337456 19.9635 0.283608 20.2298C0.230738 20.4971 0.191576 20.7653 0.164162 21.0365C0.137728 21.3068 0.125 21.5789 0.125 21.8501V71.6921C0.125 71.9643 0.137728 72.2355 0.164162 72.5067C0.191576 72.7769 0.230738 73.0462 0.283608 73.3135C0.337456 73.5798 0.403053 73.8431 0.482357 74.1036C0.560682 74.364 0.652713 74.6205 0.756494 74.8712C0.861253 75.1228 0.976782 75.3685 1.10504 75.6084C1.2333 75.8483 1.3733 76.0813 1.52408 76.3074C1.67485 76.5336 1.83738 76.7519 2.00969 76.9624C2.18201 77.1729 2.36509 77.3736 2.55699 77.5665C2.74888 77.7584 2.95057 77.9415 3.16107 78.1138C3.37156 78.2861 3.58892 78.4486 3.81508 78.5994C4.04124 78.7502 4.27426 78.8902 4.51413 79.0185C4.754 79.1467 4.99974 79.2632 5.25136 79.367C5.50298 79.4708 5.75851 79.5628 6.01894 79.6421C6.27937 79.7204 6.54274 79.787 6.80904 79.8399C7.07633 79.8928 7.34459 79.9329 7.61579 79.9593C7.88601 79.9858 8.15721 79.9995 8.42939 79.9995H74.8694C75.1416 79.9995 75.4128 79.9858 75.683 79.9593C75.9542 79.9329 76.2225 79.8928 76.4897 79.8399C76.7561 79.787 77.0204 79.7204 77.2798 79.6421C77.5403 79.5628 77.7968 79.4708 78.0474 79.367C78.299 79.2632 78.5448 79.1467 78.7847 79.0185C79.0245 78.8902 79.2575 78.7502 79.4837 78.5994C79.7099 78.4486 79.9282 78.2861 80.1377 78.1138C80.3482 77.9415 80.5499 77.7584 80.7418 77.5665C80.9347 77.3736 81.1168 77.1729 81.2891 76.9624C81.4614 76.7519 81.6239 76.5336 81.7747 76.3074C81.9255 76.0813 82.0655 75.8483 82.1938 75.6084C82.322 75.3685 82.4385 75.1228 82.5423 74.8712C82.6461 74.6205 82.7381 74.364 82.8164 74.1036C82.8957 73.8431 82.9613 73.5798 83.0152 73.3135C83.0681 73.0462 83.1082 72.7769 83.1346 72.5067C83.1611 72.2355 83.1748 71.9643 83.1748 71.6921V56.7399C83.4068 56.692 83.6369 56.6352 83.864 56.5676C84.0912 56.501 84.3154 56.4237 84.5366 56.3375C84.7569 56.2514 84.9743 56.1554 85.1867 56.0507C85.3992 55.9459 85.6068 55.8323 85.8104 55.71C86.0131 55.5866 86.2108 55.4554 86.4018 55.3164C86.5936 55.1764 86.7787 55.0285 86.9579 54.8738C87.137 54.7182 87.3093 54.5547 87.4748 54.3853C87.6393 54.2149 87.7969 54.0377 87.9467 53.8537C88.0965 53.6706 88.2385 53.4806 88.3726 53.2848C88.5058 53.089 88.6311 52.8873 88.7476 52.6807C88.8641 52.4742 88.9718 52.2627 89.0697 52.0473C89.1686 51.8309 89.2577 51.6116 89.337 51.3884C89.4163 51.1652 89.4868 50.938 89.5465 50.7089C89.6062 50.4798 89.6571 50.2478 89.6973 50.0148C89.7374 49.7808 89.7678 49.5458 89.7883 49.3089C89.8079 49.0729 89.8187 48.836 89.8187 48.599V45.2761C89.8236 45.0353 89.8177 44.7954 89.802 44.5555C89.7854 44.3147 89.759 44.0758 89.7227 43.8379C89.6855 43.6 89.6385 43.364 89.5808 43.131C89.524 42.897 89.4564 42.6659 89.3791 42.4378C89.3017 42.2107 89.2146 41.9865 89.1177 41.7662C89.0207 41.5459 88.915 41.3295 88.7995 41.119C88.6839 40.9075 88.5596 40.7019 88.4255 40.5012C88.2923 40.3015 88.1504 40.1077 88.0006 39.9197C87.8498 39.7317 87.6922 39.5506 87.5257 39.3763C87.3593 39.202 87.186 39.0356 87.0058 38.876C86.8257 38.7174 86.6377 38.5666 86.4448 38.4237C86.251 38.2807 86.0512 38.1466 85.8456 38.0203C85.641 37.895 85.4305 37.7785 85.2151 37.6718C84.9997 37.5641 84.7794 37.4671 84.5562 37.379C84.332 37.2909 84.1049 37.2126 83.8738 37.144C83.6437 37.0755 83.4097 37.0177 83.1748 36.9688ZM67.0291 3.74144L69.4209 13.5438H27.2988L67.0291 3.74144ZM74.8694 76.6765H8.42939C8.26589 76.6765 8.10336 76.6687 7.94084 76.653C7.77831 76.6364 7.61775 76.6129 7.45718 76.5806C7.2976 76.5493 7.13899 76.5091 6.98332 76.4621C6.82667 76.4142 6.67296 76.3593 6.52218 76.2976C6.3714 76.235 6.22455 76.1655 6.08062 76.0881C5.9367 76.0108 5.7967 75.9276 5.66061 75.8365C5.5255 75.7455 5.3943 75.6485 5.268 75.5457C5.1417 75.4419 5.02128 75.3323 4.90575 75.2168C4.79022 75.1012 4.68155 74.9808 4.57777 74.8545C4.47399 74.7282 4.37706 74.597 4.28601 74.4619C4.19593 74.3258 4.11173 74.1858 4.03537 74.0419C3.95802 73.898 3.88851 73.7501 3.82585 73.5994C3.76319 73.4486 3.70836 73.2958 3.66137 73.1392C3.61339 72.9835 3.57423 72.8249 3.54192 72.6643C3.51059 72.5048 3.48611 72.3432 3.47045 72.1807C3.45478 72.0182 3.44695 71.8556 3.44695 71.6921V21.8501C3.44695 21.6876 3.45478 21.5241 3.47045 21.3616C3.48611 21.2 3.51059 21.0385 3.54192 20.8779C3.57423 20.7183 3.61339 20.5597 3.66137 20.4041C3.70836 20.2474 3.76319 20.0937 3.82585 19.9429C3.88851 19.7922 3.95802 19.6453 4.03537 19.5014C4.11173 19.3575 4.19593 19.2174 4.28601 19.0814C4.37706 18.9453 4.47399 18.8151 4.57777 18.6888C4.68155 18.5625 4.79022 18.442 4.90575 18.3265C5.02128 18.211 5.1417 18.1013 5.268 17.9975C5.3943 17.8938 5.5255 17.7968 5.66159 17.7068C5.7967 17.6157 5.9367 17.5315 6.08062 17.4551C6.22455 17.3778 6.3714 17.3083 6.52218 17.2456C6.67296 17.183 6.82667 17.1281 6.98332 17.0811C7.13899 17.0332 7.2976 16.994 7.45718 16.9617C7.61775 16.9304 7.77831 16.9059 7.94084 16.8902C8.10336 16.8746 8.26589 16.8667 8.42939 16.8667H74.8694C75.0329 16.8667 75.1954 16.8746 75.358 16.8902C75.5205 16.9059 75.681 16.9304 75.8416 16.9617C76.0012 16.994 76.1598 17.0332 76.3155 17.0811C76.4721 17.1281 76.6258 17.183 76.7766 17.2456C76.9274 17.3083 77.0742 17.3778 77.2182 17.4551C77.3621 17.5315 77.5021 17.6157 77.6382 17.7068C77.7733 17.7968 77.9045 17.8938 78.0308 17.9975C78.1571 18.1013 78.2775 18.211 78.393 18.3265C78.5086 18.442 78.6182 18.5625 78.721 18.6888C78.8248 18.8151 78.9217 18.9453 79.0128 19.0814C79.1029 19.2174 79.1871 19.3575 79.2644 19.5014C79.3408 19.6453 79.4103 19.7922 79.4729 19.9429C79.5356 20.0937 79.5904 20.2474 79.6374 20.4041C79.6854 20.5597 79.7246 20.7183 79.7569 20.8779C79.7882 21.0385 79.8127 21.2 79.8283 21.3616C79.844 21.5241 79.8528 21.6876 79.8528 21.8501V36.8033H64.9035C64.6314 36.8033 64.3602 36.8161 64.089 36.8435C63.8187 36.8699 63.5495 36.91 63.2832 36.9629C63.0169 37.0158 62.7526 37.0814 62.4931 37.1607C62.2327 37.24 61.9762 37.331 61.7255 37.4358C61.4739 37.5396 61.2282 37.6561 60.9883 37.7843C60.7484 37.9126 60.5154 38.0516 60.2892 38.2034C60.0631 38.3542 59.8447 38.5157 59.6352 38.689C59.4247 38.8613 59.223 39.0434 59.0311 39.2363C58.8383 39.4282 58.6562 39.6299 58.4838 39.8404C58.3106 40.0509 58.149 40.2692 57.9982 40.4954C57.8475 40.7215 57.7075 40.9545 57.5792 41.1944C57.4509 41.4343 57.3344 41.68 57.2307 41.9307C57.1269 42.1823 57.0348 42.4388 56.9565 42.6982C56.8772 42.9587 56.8106 43.223 56.7578 43.4893C56.7049 43.7566 56.6648 44.0249 56.6383 44.2961C56.6119 44.5663 56.5982 44.8385 56.5982 45.1097V48.4326C56.5982 48.7048 56.6119 48.976 56.6383 49.2472C56.6648 49.5174 56.7049 49.7866 56.7578 50.0539C56.8106 50.3202 56.8772 50.5836 56.9565 50.844C57.0348 51.1045 57.1269 51.361 57.2307 51.6116C57.3344 51.8632 57.4509 52.109 57.5792 52.3488C57.7075 52.5887 57.8475 52.8217 57.9982 53.0479C58.149 53.2741 58.3106 53.4924 58.4838 53.7029C58.6562 53.9134 58.8383 54.1141 59.0311 54.307C59.223 54.4989 59.4247 54.6819 59.6352 54.8543C59.8447 55.0266 60.0631 55.1891 60.2892 55.3399C60.5154 55.4906 60.7484 55.6307 60.9883 55.7589C61.2282 55.8872 61.4739 56.0037 61.7255 56.1075C61.9762 56.2112 62.2327 56.3033 62.4931 56.3826C62.7526 56.4609 63.0169 56.5275 63.2832 56.5803C63.5495 56.6332 63.8187 56.6734 64.089 56.6998C64.3602 56.7262 64.6314 56.7399 64.9035 56.7399H79.8528V71.6921C79.8528 71.8556 79.844 72.0182 79.8283 72.1807C79.8127 72.3432 79.7882 72.5048 79.7569 72.6643C79.7246 72.8249 79.6854 72.9835 79.6374 73.1392C79.5904 73.2958 79.5356 73.4486 79.4729 73.5994C79.4103 73.7501 79.3408 73.898 79.2644 74.0419C79.1871 74.1858 79.1029 74.3258 79.0128 74.4619C78.9217 74.597 78.8248 74.7282 78.721 74.8545C78.6182 74.9808 78.5086 75.1012 78.393 75.2168C78.2775 75.3323 78.1571 75.4419 78.0308 75.5457C77.9045 75.6485 77.7733 75.7455 77.6382 75.8365C77.5021 75.9276 77.3621 76.0108 77.2182 76.0881C77.0742 76.1655 76.9274 76.235 76.7766 76.2976C76.6258 76.3593 76.4721 76.4142 76.3155 76.4621C76.1598 76.5091 76.0012 76.5493 75.8416 76.5806C75.681 76.6129 75.5205 76.6364 75.358 76.653C75.1954 76.6687 75.0329 76.6765 74.8694 76.6765ZM86.4967 48.4326C86.4957 48.6881 86.4752 48.9427 86.436 49.1953C86.3959 49.4469 86.3371 49.6956 86.2588 49.9384C86.1815 50.1822 86.0855 50.4181 85.971 50.6463C85.8564 50.8754 85.7262 51.0937 85.5784 51.3022C85.4305 51.5108 85.267 51.7066 85.0898 51.8897C84.9116 52.0737 84.7207 52.2421 84.5171 52.3958C84.3124 52.5505 84.098 52.6876 83.8728 52.809C83.6486 52.9294 83.4156 53.0332 83.1748 53.1184C82.6392 53.3211 82.0861 53.4199 81.5133 53.417H64.9035C64.74 53.417 64.5775 53.4092 64.415 53.3935C64.2525 53.3769 64.0909 53.3534 63.9313 53.3211C63.7708 53.2897 63.6131 53.2496 63.4565 53.2026C63.3008 53.1546 63.1471 53.0998 62.9963 53.0381C62.8456 52.9754 62.6987 52.9059 62.5548 52.8286C62.4109 52.7512 62.2709 52.668 62.1348 52.577C61.9997 52.4859 61.8685 52.389 61.7422 52.2862C61.6159 52.1824 61.4954 52.0727 61.3799 51.9572C61.2644 51.8417 61.1547 51.7213 61.0519 51.595C60.9481 51.4687 60.8512 51.3375 60.7602 51.2024C60.6691 51.0663 60.5859 50.9263 60.5085 50.7823C60.4322 50.6384 60.3627 50.4906 60.3 50.3398C60.2373 50.189 60.1825 50.0363 60.1345 49.8797C60.0875 49.724 60.0484 49.5654 60.0161 49.4048C59.9847 49.2452 59.9603 49.0837 59.9446 48.9212C59.928 48.7586 59.9201 48.5961 59.9201 48.4326V45.1097C59.9201 44.9471 59.928 44.7836 59.9446 44.6211C59.9603 44.4596 59.9847 44.298 60.0161 44.1375C60.0484 43.9779 60.0875 43.8193 60.1345 43.6636C60.1825 43.507 60.2373 43.3532 60.3 43.2025C60.3627 43.0517 60.4322 42.9048 60.5085 42.7609C60.5859 42.617 60.6691 42.477 60.7602 42.3409C60.8512 42.2058 60.9481 42.0746 61.0519 41.9483C61.1547 41.822 61.2644 41.7016 61.3799 41.586C61.4954 41.4705 61.6159 41.3609 61.7422 41.2571C61.8685 41.1533 61.9997 41.0564 62.1348 40.9663C62.2709 40.8752 62.4109 40.791 62.5548 40.7147C62.6987 40.6373 62.8456 40.5678 62.9963 40.5052C63.1471 40.4425 63.3008 40.3877 63.4565 40.3407C63.6131 40.2927 63.7708 40.2535 63.9313 40.2212C64.0909 40.1899 64.2525 40.1664 64.415 40.1498C64.5775 40.1341 64.74 40.1263 64.9035 40.1263H81.5133C82.0861 40.1223 82.6392 40.2222 83.1748 40.4249C83.4156 40.51 83.6486 40.6128 83.8728 40.7343C84.098 40.8557 84.3124 40.9927 84.5171 41.1464C84.7207 41.3011 84.9116 41.4695 85.0898 41.6526C85.267 41.8367 85.4305 42.0325 85.5784 42.241C85.7262 42.4496 85.8564 42.6679 85.971 42.896C86.0855 43.1251 86.1815 43.3611 86.2588 43.6039C86.3371 43.8477 86.3959 44.0954 86.436 44.348C86.4752 44.6006 86.4957 44.8541 86.4967 45.1097V48.4326Z" fill="#90CAFF"/>
</g>
<mask id="mask1_1922_72900" style="mask-type:luminance" maskUnits="userSpaceOnUse" x="7" y="29" width="45" height="42">
<path d="M7.39844 29.8359H51.7616V70.8155H7.39844V29.8359Z" fill="white"/>
</mask>
<g mask="url(#mask1_1922_72900)">
<path d="M51.7145 49.2057C51.7145 46.4124 44.1161 44.0822 34.02 43.5457L34.019 39.0959H46.6264V29.8359H12.1517V39.0959H24.7581V43.5673C14.8451 44.142 7.42969 46.4467 7.42969 49.2057C7.42969 51.9637 14.8451 54.2694 24.7581 54.8431V70.8204H34.019V54.8646C44.1161 54.3281 51.7145 51.9979 51.7145 49.2057ZM29.5721 51.9558C18.7339 51.9558 9.94783 50.2787 9.94783 48.208C9.94783 46.4545 16.2481 44.983 24.7581 44.5737V45.6292H24.7591V49.9527C26.2942 50.0388 27.9058 50.0849 29.5721 50.0849C31.1063 50.0849 32.5955 50.0447 34.02 49.9733V44.5571C42.714 44.9419 49.1964 46.4291 49.1964 48.208C49.1964 50.2787 40.4103 51.9558 29.5721 51.9558Z" fill="#90CAFF"/>
</g>
</svg>
