<svg width="87" height="80" viewBox="0 0 87 80" fill="none" xmlns="http://www.w3.org/2000/svg">
<path d="M86.5514 37.8123C86.5514 32.3611 71.7139 27.8123 51.999 26.7629L51.9972 18.0773H76.615V0H9.29926V18.0773H33.9153V26.8065C14.558 27.9276 0.078125 32.4283 0.078125 37.8123C0.078125 43.1972 14.558 47.6988 33.9153 48.8181V80.0091H51.9972V48.8607C71.7139 47.8132 86.5514 43.2643 86.5514 37.8123ZM43.3143 43.1826C22.1524 43.1826 4.99552 39.9083 4.99552 35.866C4.99552 32.4437 17.2976 29.5697 33.9153 28.7709V30.8306H33.9171V39.272C36.9136 39.4408 40.0618 39.5289 43.3143 39.5289C46.31 39.5289 49.2185 39.4526 51.999 39.3128V28.7391C68.977 29.4898 81.634 32.3938 81.634 35.866C81.634 39.9083 64.4772 43.1826 43.3143 43.1826Z" fill="#101222"/>
</svg>
