<svg width="87" height="80" viewBox="0 0 87 80" fill="none" xmlns="http://www.w3.org/2000/svg">
<path d="M86.5436 37.8123C86.5436 32.3611 71.7061 27.8123 51.9912 26.7629L51.9893 18.0773H76.6072V0H9.29145V18.0773H33.9075V26.8065C14.5502 27.9276 0.0703125 32.4283 0.0703125 37.8123C0.0703125 43.1972 14.5502 47.6988 33.9075 48.8181V80.0091H51.9893V48.8607C71.7061 47.8132 86.5436 43.2643 86.5436 37.8123ZM43.3065 43.1826C22.1446 43.1826 4.98771 39.9083 4.98771 35.866C4.98771 32.4437 17.2898 29.5697 33.9075 28.7709V30.8306H33.9093V39.272C36.9058 39.4399 40.054 39.5289 43.3065 39.5289C46.3022 39.5289 49.2107 39.4526 51.9912 39.3128V28.7391C68.9692 29.4898 81.6262 32.3938 81.6262 35.866C81.6262 39.9083 64.4694 43.1826 43.3065 43.1826Z" fill="#90CAFF"/>
</svg>
