<svg width="31" height="31" viewBox="0 0 31 31" fill="none" xmlns="http://www.w3.org/2000/svg">
    <path d="M30.0635 0.0312503L25.0969 0.03125V1.03125L29.0635 1.03125V4.99775H30.0635V0.0312503Z" fill="#0078FF"/>
    <path d="M0.03125 0.0312503V4.99775H1.03125V1.03125H4.99787V0.0312503H0.03125Z" fill="#0078FF"/>
    <path d="M0.03125 30.0635H4.99787V29.0635H1.03125L1.03125 25.097H0.03125V30.0635Z" fill="#0078FF"/>
    <path d="M30.0635 30.0635H25.0969V29.0635H29.0635V25.097H30.0635V30.0635Z" fill="#0078FF"/>
    <path fill-rule="evenodd" clip-rule="evenodd" d="M24.6217 17.6138C23.8105 16.8095 23.0905 16.0958 23.0398 15.6032C22.9775 14.9997 23.7485 14.0361 24.4988 13.0984C24.8147 12.7035 25.127 12.3133 25.3718 11.9564C26.381 10.4919 27.4752 8.72706 26.846 8.18297C26.5386 7.9186 25.3717 7.92431 24.2005 7.93005L24.1448 7.93032C22.9299 7.93759 21.7232 7.94535 21.4442 8.058C21.2714 8.12757 20.9527 8.79627 20.5336 9.67581C20.3279 10.1074 20.0981 10.5897 19.8494 11.0769C18.9952 12.7498 17.9385 14.3572 17.2716 14.3472C16.5058 14.3352 16.5749 12.1768 16.6356 10.2828C16.6434 10.0384 16.6511 9.79831 16.6568 9.56784C16.6922 8.22895 16.4791 7.81175 16.2891 7.67967C15.8271 7.36241 14.5704 7.05091 14.5704 7.05091C14.5704 7.05091 10.814 6.75789 10.2751 8.43419C10.321 8.44036 10.3689 8.44518 10.4184 8.45016C11.1412 8.52283 12.1946 8.62875 11.7486 13.4677C11.724 13.7185 11.1736 15.8475 9.41546 12.9653C9.2829 12.7467 9.03296 12.192 8.73327 11.5269C8.0537 10.0187 7.11832 7.94283 6.71571 7.9304C6.58861 7.92693 6.46168 7.92334 6.33524 7.91976C4.52288 7.86847 2.81173 7.82004 2.17377 8.18305C1.55295 8.53701 3.0155 11.5142 5.48803 15.4797C7.51031 18.7233 9.65143 21.2593 13.3449 21.895C14.0342 21.9676 15.8518 22.0517 16.4117 21.7703C16.5487 21.7014 16.5794 21.3114 16.6179 20.8225C16.6892 19.9161 16.7873 18.6699 17.6388 18.5C17.955 18.4362 18.7455 19.28 19.5424 20.1305C20.2322 20.8667 20.9267 21.608 21.3225 21.7703C21.8388 21.9824 22.979 22.0603 24.1449 22.0218C24.3462 22.0152 24.5516 22.0137 24.7553 22.0121C25.8286 22.0039 26.8526 21.996 26.9689 21.2656C27.1506 20.1208 25.7912 18.7732 24.6217 17.6138Z" fill="#0078FF"/>
</svg>