<svg width="12" height="15" viewBox="0 0 12 15" fill="none" xmlns="http://www.w3.org/2000/svg">
<path d="M11.5714 2.34375H9.36482L8.45411 0.681152C8.19911 0.258604 7.80536 0 7.35536 0H4.64464C4.19464 0 3.77679 0.258604 3.54643 0.681152L2.63518 2.34375H0.428571C0.190848 2.34375 0 2.55264 0 2.8125V3.28125C0 3.54199 0.190848 3.75 0.428571 3.75H0.857143V13.125C0.857143 14.1606 1.62455 15 2.57143 15H9.42857C10.3754 15 11.1429 14.1606 11.1429 13.125V3.75H11.5714C11.8098 3.75 12 3.54199 12 3.28125V2.8125C12 2.55264 11.8098 2.34375 11.5714 2.34375ZM4.60446 1.49063C4.63125 1.43936 4.68482 1.40625 4.74107 1.40625H7.25893C7.31585 1.40625 7.36942 1.43921 7.39621 1.49048L7.86429 2.34375H4.13571L4.60446 1.49063ZM9.42857 13.5938H2.57143C2.33472 13.5938 2.14286 13.3839 2.14286 13.125V3.75H9.85714V13.125C9.85714 13.3828 9.66429 13.5938 9.42857 13.5938ZM6 12.1875C6.23689 12.1875 6.42857 11.9779 6.42857 11.7188V5.625C6.42857 5.3659 6.23689 5.15625 6 5.15625C5.76311 5.15625 5.57143 5.36719 5.57143 5.625V11.7188C5.57143 11.9766 5.76429 12.1875 6 12.1875ZM3.85714 12.1875C4.09286 12.1875 4.28571 11.9766 4.28571 11.7188V5.625C4.28571 5.3659 4.09404 5.15625 3.85714 5.15625C3.62025 5.15625 3.42857 5.36719 3.42857 5.625V11.7188C3.42857 11.9766 3.62143 12.1875 3.85714 12.1875ZM8.14286 12.1875C8.37975 12.1875 8.57143 11.9779 8.57143 11.7188V5.625C8.57143 5.3659 8.37975 5.15625 8.14286 5.15625C7.90596 5.15625 7.71429 5.36719 7.71429 5.625V11.7188C7.71429 11.9766 7.90714 12.1875 8.14286 12.1875Z" fill="#AFAFAF"/>
</svg>
