<svg width="32" height="32" viewBox="0 0 32 32" fill="none" xmlns="http://www.w3.org/2000/svg">
<path d="M1.375 5.875V1.375H5.875" stroke="#90CAFF"/>
<path d="M5.875 30.625L1.375 30.625L1.375 26.125" stroke="#90CAFF"/>
<path d="M30.625 26.125L30.625 30.625L26.125 30.625" stroke="#90CAFF"/>
<path d="M26.125 1.375L30.625 1.375L30.625 5.875" stroke="#90CAFF"/>
<path fill-rule="evenodd" clip-rule="evenodd" d="M12.637 12.2811C14.7423 10.0589 15.5 6.48979 15.5 1H16.5C16.5 6.97598 17.5034 10.5382 19.7189 12.637C21.9411 14.7423 25.5102 15.5 31 15.5V16.5C25.024 16.5 21.4618 17.5034 19.363 19.7189C17.2577 21.9411 16.5 25.5102 16.5 31H15.5C15.5 25.024 14.4966 21.4618 12.2811 19.363C10.0589 17.2577 6.48979 16.5 1 16.5V15.5C6.97598 15.5 10.5382 14.4966 12.637 12.2811ZM17.5 20.5L17.5345 20.4754C17.5148 20.5076 17.4952 20.54 17.4758 20.5726L17.5 20.5Z" fill="#90CAFF"/>
</svg>
