<svg width="31" height="31" viewBox="0 0 31 31" fill="none" xmlns="http://www.w3.org/2000/svg">
    <path d="M30.0322 0.0312503L25.0656 0.03125V1.03125L29.0322 1.03125V4.99775H30.0322V0.0312503Z" fill="white"/>
    <path d="M0 0.0312503V4.99775H1V1.03125H4.96662V0.0312503H0Z" fill="white"/>
    <path d="M0 30.0635H4.96662V29.0635H1L1 25.097H0V30.0635Z" fill="white"/>
    <path d="M30.0322 30.0635H25.0656V29.0635H29.0322V25.097H30.0322V30.0635Z" fill="white"/>
    <path d="M25.8651 10.5641C25.8651 8.68912 24.5073 7.18083 22.8295 7.18083C20.557 7.07292 18.2393 7.03125 15.8708 7.03125H15.1324C12.7696 7.03125 10.4478 7.07292 8.17526 7.18125C6.50161 7.18125 5.14382 8.69787 5.14382 10.5728C5.04127 12.0557 4.99779 13.539 5.00025 15.0223C4.99615 16.5056 5.04264 17.9903 5.13972 19.4763C5.13972 21.3513 6.49751 22.8721 8.17116 22.8721C10.5586 22.9846 13.0075 23.0346 15.4975 23.0304C17.9915 23.0387 20.4336 22.986 22.8238 22.8721C24.5015 22.8721 25.8593 21.3513 25.8593 19.4763C25.9578 17.9889 26.0029 16.5056 25.9988 15.0181C26.0081 13.5348 25.9635 12.0501 25.8651 10.5641ZM13.4916 19.1097V10.9224L19.4396 15.0139L13.4916 19.1097Z" fill="#EC4C4C"/>
</svg>